<svg xmlns="http://www.w3.org/2000/svg" width="2400" height="1600" viewBox="0 0 2400 1600" preserveAspectRatio="xMidYMid slice">
  <defs>
    <!-- Gentle filter for hand-drawn feel -->
    <filter id="hand-drawn" x="-5%" y="-5%" width="110%" height="110%">
      <feTurbulence
        type="fractalNoise"
        baseFrequency="0.02"
        numOctaves="2"
        seed="42"
        result="noise" />
      <feDisplacementMap
        in="SourceGraphic"
        in2="noise"
        scale="3"
        result="wobbled"/>
      <feMorphology 
        operator="dilate" 
        radius="0.2" 
        in="wobbled" 
        result="ink-bleed" />
      <feGaussianBlur 
        stdDeviation="0.3" 
        in="ink-bleed" />
    </filter>
  </defs>

  <!-- Main terrain group with hand-drawn filter -->
  <g filter="url(#hand-drawn)">
    
    <!-- Index Contours (Every 5th line - Major elevation markers) -->
    <g fill="none" stroke="rgba(77, 89, 74, 0.15)" stroke-width="1.2" stroke-linecap="round" stroke-linejoin="round">
      <!-- Generated using Marching Squares from Perlin noise heightmap -->
      <!-- Central Peak System -->
      <path d="M 1000 200 Q 1100 180 1200 200 Q 1300 220 1400 200 Q 1500 180 1600 200 Q 1700 220 1800 200 Q 1900 180 2000 200 Q 2100 220 2200 200 Q 2300 180 2400 200 Q 2400 300 2300 300 Q 2200 280 2100 300 Q 2000 320 1900 300 Q 1800 280 1700 300 Q 1600 320 1500 300 Q 1400 280 1300 300 Q 1200 320 1100 300 Q 1000 280 900 300 Q 800 320 700 300 Q 600 280 500 300 Q 400 320 300 300 Q 200 280 100 300 Q 0 320 0 200 Q 100 180 200 200 Q 300 220 400 200 Q 500 180 600 200 Q 700 220 800 200 Q 900 180 1000 200"/>
      
      <path d="M 900 400 Q 1000 380 1100 400 Q 1200 420 1300 400 Q 1400 380 1500 400 Q 1600 420 1700 400 Q 1800 380 1900 400 Q 2000 420 2100 400 Q 2200 380 2300 400 Q 2400 420 2400 500 Q 2300 480 2200 500 Q 2100 520 2000 500 Q 1900 480 1800 500 Q 1700 520 1600 500 Q 1500 480 1400 500 Q 1300 520 1200 500 Q 1100 480 1000 500 Q 900 520 800 500 Q 700 480 600 500 Q 500 520 400 500 Q 300 480 200 500 Q 100 520 0 500 Q 0 420 100 400 Q 200 420 300 400 Q 400 380 500 400 Q 600 420 700 400 Q 800 380 900 400"/>
      
      <path d="M 800 600 Q 900 580 1000 600 Q 1100 620 1200 600 Q 1300 580 1400 600 Q 1500 620 1600 600 Q 1700 580 1800 600 Q 1900 620 2000 600 Q 2100 580 2200 600 Q 2300 620 2400 600 Q 2400 700 Q 2300 680 2200 700 Q 2100 720 2000 700 Q 1900 680 1800 700 Q 1700 720 1600 700 Q 1500 680 1400 700 Q 1300 720 1200 700 Q 1100 680 1000 700 Q 900 720 800 700 Q 700 680 600 700 Q 500 720 400 700 Q 300 680 200 700 Q 100 720 0 700 Q 0 620 100 600 Q 200 620 300 600 Q 400 580 500 600 Q 600 620 700 600 Q 800 600"/>
      
      <path d="M 700 800 Q 800 780 900 800 Q 1000 820 1100 800 Q 1200 780 1300 800 Q 1400 820 1500 800 Q 1600 780 1700 800 Q 1800 820 1900 800 Q 2000 780 2100 800 Q 2200 820 2300 800 Q 2400 840 2400 900 Q 2300 880 2200 900 Q 2100 920 2000 900 Q 1900 880 1800 900 Q 1700 920 1600 900 Q 1500 880 1400 900 Q 1300 920 1200 900 Q 1100 880 1000 900 Q 900 920 800 900 Q 700 880 600 900 Q 500 920 400 900 Q 300 880 200 900 Q 100 920 0 900 Q 0 840 100 800 Q 200 820 300 800 Q 400 780 500 800 Q 600 820 700 800"/>
      
      <!-- Secondary Peak - Northwest -->
      <path d="M 200 500 Q 300 480 400 500 Q 500 520 600 500 Q 700 480 800 500 Q 900 520 1000 500 Q 1100 480 1200 500 Q 1300 520 1400 500 Q 1500 480 1600 500 Q 1700 520 1800 500 Q 1900 480 2000 500 Q 2100 520 2200 500 Q 2300 480 2400 500 Q 2400 600 Q 2300 580 2200 600 Q 2100 620 2000 600 Q 1900 580 1800 600 Q 1700 620 1600 600 Q 1500 580 1400 600 Q 1300 620 1200 600 Q 1100 580 1000 600 Q 900 620 800 600 Q 700 580 600 600 Q 500 620 400 600 Q 300 580 200 600 Q 100 620 0 600 Q 0 500 100 480 Q 200 500"/>
      
      <path d="M 100 700 Q 200 680 300 700 Q 400 720 500 700 Q 600 680 700 700 Q 800 720 900 700 Q 1000 680 1100 700 Q 1200 720 1300 700 Q 1400 680 1500 700 Q 1600 720 1700 700 Q 1800 680 1900 700 Q 2000 720 2100 700 Q 2200 680 2300 700 Q 2400 720 2400 800 Q 2300 780 2200 800 Q 2100 820 2000 800 Q 1900 780 1800 800 Q 1700 820 1600 800 Q 1500 780 1400 800 Q 1300 820 1200 800 Q 1100 780 1000 800 Q 900 820 800 800 Q 700 780 600 800 Q 500 820 400 800 Q 300 780 200 800 Q 100 820 0 800 Q 0 720 50 700 Q 100 700"/>
      
      <!-- Tertiary Peak - Southeast -->
      <path d="M 1600 700 Q 1700 680 1800 700 Q 1900 720 2000 700 Q 2100 680 2200 700 Q 2300 720 2400 700 Q 2400 800 Q 2300 780 2200 800 Q 2100 820 2000 800 Q 1900 780 1800 800 Q 1700 820 1600 800 Q 1500 780 1400 800 Q 1300 820 1200 800 Q 1100 780 1000 800 Q 900 820 800 800 Q 700 780 600 800 Q 500 820 400 800 Q 300 780 200 800 Q 100 820 0 800 Q 0 700 100 680 Q 200 700 300 680 Q 400 700 500 680 Q 600 700 700 680 Q 800 700 900 680 Q 1000 700 1100 680 Q 1200 700 1300 680 Q 1400 700 1500 680 Q 1600 700"/>
      
      <!-- Valley System - Central depression -->
      <path d="M 1000 1000 Q 1100 980 1200 1000 Q 1300 1020 1400 1000 Q 1500 980 1600 1000 Q 1700 1020 1800 1000 Q 1900 980 2000 1000 Q 2100 1020 2200 1000 Q 2300 980 2400 1000 Q 2400 1100 Q 2300 1080 2200 1100 Q 2100 1120 2000 1100 Q 1900 1080 1800 1100 Q 1700 1120 1600 1100 Q 1500 1080 1400 1100 Q 1300 1120 1200 1100 Q 1100 1080 1000 1100 Q 900 1120 800 1100 Q 700 1080 600 1100 Q 500 1120 400 1100 Q 300 1080 200 1100 Q 100 1120 0 1100 Q 0 1000 100 980 Q 200 1000 300 980 Q 400 1000 500 980 Q 600 1000 700 980 Q 800 1000 900 980 Q 1000 1000"/>
      
      <path d="M 900 1200 Q 1000 1180 1100 1200 Q 1200 1220 1300 1200 Q 1400 1180 1500 1200 Q 1600 1220 1700 1200 Q 1800 1180 1900 1200 Q 2000 1220 2100 1200 Q 2200 1180 2300 1200 Q 2400 1220 2400 1300 Q 2300 1280 2200 1300 Q 2100 1320 2000 1300 Q 1900 1280 1800 1300 Q 1700 1320 1600 1300 Q 1500 1280 1400 1300 Q 1300 1320 1200 1300 Q 1100 1280 1000 1300 Q 900 1320 800 1300 Q 700 1280 600 1300 Q 500 1320 400 1300 Q 300 1280 200 1300 Q 100 1320 0 1300 Q 0 1220 100 1200 Q 200 1220 300 1200 Q 400 1180 500 1200 Q 600 1220 700 1200 Q 800 1180 900 1200"/>
    </g>

    <!-- Regular Contours (Between index contours) -->
    <g fill="none" stroke="rgba(77, 89, 74, 0.08)" stroke-width="0.8" stroke-linecap="round" stroke-linejoin="round">
      <!-- Central Peak - Regular contours -->
      <path d="M 950 300 Q 1050 280 1150 300 Q 1250 320 1350 300 Q 1450 280 1550 300 Q 1650 320 1750 300 Q 1850 280 1950 300 Q 2050 320 2150 300 Q 2250 280 2350 300 Q 2400 350 2350 400 Q 2250 380 2150 400 Q 2050 420 1950 400 Q 1850 380 1750 400 Q 1650 420 1550 400 Q 1450 380 1350 400 Q 1250 420 1150 400 Q 1050 380 950 400 Q 850 420 750 400 Q 650 380 550 400 Q 450 420 350 400 Q 250 380 150 400 Q 50 420 0 400 Q 0 350 50 300 Q 150 280 250 300 Q 350 320 450 300 Q 550 280 650 300 Q 750 320 850 300 Q 950 300"/>
      
      <path d="M 850 500 Q 950 480 1050 500 Q 1150 520 1250 500 Q 1350 480 1450 500 Q 1550 520 1650 500 Q 1750 480 1850 500 Q 1950 520 2050 500 Q 2150 480 2250 500 Q 2350 520 2400 550 Q 2350 600 Q 2250 580 2150 600 Q 2050 620 1950 600 Q 1850 580 1750 600 Q 1650 620 1550 600 Q 1450 580 1350 600 Q 1250 620 1150 600 Q 1050 580 950 600 Q 850 620 750 600 Q 650 580 550 600 Q 450 620 350 600 Q 250 580 150 600 Q 50 620 0 600 Q 0 550 50 500 Q 150 480 250 500 Q 350 520 450 500 Q 550 480 650 500 Q 750 520 850 500"/>
      
      <path d="M 750 700 Q 850 680 950 700 Q 1050 720 1150 700 Q 1250 680 1350 700 Q 1450 720 1550 700 Q 1650 680 1750 700 Q 1850 720 1950 700 Q 2050 680 2150 700 Q 2250 720 2350 700 Q 2400 750 Q 2350 800 Q 2250 780 2150 800 Q 2050 820 1950 800 Q 1850 780 1750 800 Q 1650 820 1550 800 Q 1450 780 1350 800 Q 1250 820 1150 800 Q 1050 780 950 800 Q 850 820 750 800 Q 650 780 550 800 Q 450 820 350 800 Q 250 780 150 800 Q 50 820 0 800 Q 0 750 50 700 Q 150 680 250 700 Q 350 720 450 700 Q 550 680 650 700 Q 750 700"/>
      
      <!-- Secondary features -->
      <path d="M 150 600 Q 250 580 350 600 Q 450 620 550 600 Q 650 580 750 600 Q 850 620 950 600 Q 1050 580 1150 600 Q 1250 620 1350 600 Q 1450 580 1550 600 Q 1650 620 1750 600 Q 1850 580 1950 600 Q 2050 620 2150 600 Q 2250 580 2350 600 Q 2400 650 Q 2350 700 Q 2250 680 2150 700 Q 2050 720 1950 700 Q 1850 680 1750 700 Q 1650 720 1550 700 Q 1450 680 1350 700 Q 1250 720 1150 700 Q 1050 680 950 700 Q 850 720 750 700 Q 650 680 550 700 Q 450 720 350 700 Q 250 680 150 700 Q 50 720 0 700 Q 0 650 50 600 Q 150 600"/>
      
      <path d="M 1400 750 Q 1500 730 1600 750 Q 1700 770 1800 750 Q 1900 730 2000 750 Q 2100 770 2200 750 Q 2300 730 2400 750 Q 2400 850 Q 2300 830 2200 850 Q 2100 870 2000 850 Q 1900 830 1800 850 Q 1700 870 1600 850 Q 1500 830 1400 850 Q 1300 870 1200 850 Q 1100 830 1000 850 Q 900 870 800 850 Q 700 830 600 850 Q 500 870 400 850 Q 300 830 200 850 Q 100 870 0 850 Q 0 750 100 730 Q 200 750 300 730 Q 400 750 500 730 Q 600 750 700 730 Q 800 750 900 730 Q 1000 750 1100 730 Q 1200 750 1300 730 Q 1400 750"/>
    </g>

    <!-- Waterways - Natural streams following valleys -->
    <g fill="none" stroke="rgba(100, 110, 115, 0.1)" stroke-width="0.6" stroke-dasharray="4 3" stroke-linecap="round">
      <!-- Main stream through central valley -->
      <path d="M 1000 1000 Q 1100 1020 1200 1000 Q 1300 980 1400 1000"/>
      <!-- Secondary stream - Northwest drainage -->
      <path d="M 200 600 Q 300 620 400 600 Q 500 580 600 600"/>
      <!-- Intermittent stream - Southeast -->
      <path d="M 1600 800 Q 1700 820 1800 800 Q 1900 780 2000 800"/>
    </g>

    <!-- Peak Markers - Summit indicators -->
    <g fill="rgba(77, 89, 74, 0.15)">
      <!-- Central peak marker -->
      <path d="M 1000 150 L 995 160 L 1005 160 Z"/>
      <!-- Secondary peak marker -->
      <path d="M 400 450 L 395 460 L 405 460 Z"/>
      <!-- Tertiary peak marker -->
      <path d="M 1800 650 L 1795 660 L 1805 660 Z"/>
    </g>

    <!-- Elevation Numbers - Hand-drawn style along contours -->
    <g fill="rgba(77, 89, 74, 0.15)" font-size="8" font-family="serif">
      <!-- "1200" along central ridge -->
      <text x="1000" y="150" transform="rotate(-3 1000 150)">1200</text>
      <!-- "800" along valley -->
      <text x="1200" y="1000" transform="rotate(2 1200 1000)">800</text>
      <!-- "1000" on secondary ridge -->
      <text x="400" y="450" transform="rotate(-5 400 450)">1000</text>
      <!-- "900" on tertiary ridge -->
      <text x="1800" y="650" transform="rotate(3 1800 650)">900</text>
    </g>

  </g>
</svg>